<svg width="94" height="55" viewBox="0 0 94 55" fill="none" xmlns="http://www.w3.org/2000/svg">
<path opacity="0.1" d="M3.13953 6.36851C15.0511 -10.8451 84.1314 9.23829 93.66 37.9291V55.1439C93.4261 55.3466 93.1899 55.5444 92.955 55.7416L83.7001 50.5082C83.9568 48.5722 83.9401 46.9309 83.622 45.2484C83.2703 43.3892 82.5623 41.527 81.5438 39.221C81.3207 38.7161 80.7296 38.4874 80.2245 38.7103C79.7195 38.9335 79.4907 39.5245 79.7138 40.0296C80.7186 42.3046 81.3487 43.9944 81.6561 45.6195C81.8851 46.8302 81.9393 48.0327 81.8104 49.4388L61.5389 37.974C62.311 34.488 61.1857 31.7005 59.3124 27.3919C59.0922 26.8856 58.5034 26.6534 57.997 26.8734C57.4906 27.0936 57.2585 27.6824 57.4784 28.1888C59.2326 32.2234 60.0718 34.4357 59.6991 36.9339L52.1386 32.6585C51.6578 32.3867 51.0481 32.5558 50.7763 33.0365C50.5044 33.5172 50.6735 34.1269 51.1542 34.3988L59.8886 39.3392L82.122 51.9125L91.2811 57.0931C75.2295 69.5187 56.5913 69.1164 29.7391 54.4261C6.71223 39.3633 -6.38889 22.5071 3.13953 6.36851Z" fill="white"/>
</svg>
