<svg width="214" height="48" viewBox="0 0 214 48" fill="none" xmlns="http://www.w3.org/2000/svg">
<g clip-path="url(#clip0_4001_2304)">
<path d="M0 0.64209V20.9227L17.3044 10.785L0 0.64209Z" fill="#ABD147"/>
<path d="M20.4417 39.2561L16.219 37.001L40.6457 22.5879V14.5018L9.40682 32.8613L5.18409 30.6062L40.6457 9.6783V1.67569L0 25.7357V35.3566L20.0799 47.3579L40.6457 35.2365V27.3801L20.4417 39.2561Z" fill="#E6F3EB"/>
<path d="M60.6843 30.9559C62.1367 32.3341 63.9199 33.0284 66.0338 33.0284C66.6902 33.0284 67.3931 32.9605 68.1374 32.8196C70.9905 32.261 73.2078 30.9507 74.7842 28.8887L79.896 32.9762C77.4719 37.048 73.5541 39.3814 68.1374 39.9765C67.3776 40.0652 66.6334 40.107 65.9046 40.107C61.4596 40.107 57.7279 38.5879 54.7198 35.5445C51.7272 32.522 50.2283 28.8679 50.2283 24.5873C50.2283 20.3067 51.7272 16.6786 54.7198 13.6561C57.7124 10.6127 61.3304 9.09363 65.5686 9.09363C68.2511 9.09363 70.7682 9.77748 73.1199 11.1347C76.7896 13.2333 79.0897 16.0835 80.0252 19.6803L60.6895 30.9507L60.6843 30.9559ZM70.1842 18.0307C68.8662 17.0336 67.4345 16.475 65.8736 16.355C65.6823 16.3393 65.4911 16.3289 65.305 16.3289C64.0594 16.3289 62.8758 16.6421 61.7491 17.2737C59.0821 18.7406 57.7537 21.0949 57.7537 24.3263C57.7537 24.6395 57.7641 24.9527 57.7796 25.2711L70.1842 18.0359V18.0307Z" fill="#E6F3EB"/>
<path d="M91.701 10.0176L98.0325 23.4649L104.989 10.0176H113.45L97.6965 40.4255L83.3951 10.0176H91.701Z" fill="#E6F3EB"/>
<path d="M132.424 9.12494C136.662 9.12494 140.281 10.644 143.273 13.6874C146.266 16.7099 147.765 20.3537 147.765 24.6186C147.765 28.8835 146.266 32.5533 143.273 35.5758C140.281 38.5984 136.662 40.1122 132.424 40.1122C128.186 40.1122 124.568 38.6036 121.575 35.5758C118.583 32.5533 117.084 28.8992 117.084 24.6186C117.084 20.338 118.583 16.7099 121.575 13.6874C124.568 10.6492 128.186 9.12494 132.424 9.12494ZM126.894 18.6936C125.369 20.338 124.609 22.3112 124.609 24.6186C124.609 26.9259 125.369 28.9253 126.894 30.5696C128.419 32.1931 130.259 33.0075 132.424 33.0075C134.59 33.0075 136.43 32.1931 137.955 30.5696C139.479 28.9253 140.239 26.9416 140.239 24.6186C140.239 22.2956 139.479 20.338 137.955 18.6936C136.43 17.0492 134.59 16.2297 132.424 16.2297C130.259 16.2297 128.419 17.0492 126.894 18.6936Z" fill="#E6F3EB"/>
<path d="M161.777 1.23196V39.2404H154.251V1.23196H161.777Z" fill="#E6F3EB"/>
<path d="M175.949 1.15367C176.709 1.92104 177.091 2.85025 177.091 3.93083C177.091 5.01142 176.709 5.94062 175.949 6.71321C175.189 7.48581 174.269 7.86689 173.199 7.86689C172.129 7.86689 171.209 7.48059 170.45 6.71321C169.69 5.94584 169.307 5.01664 169.307 3.93083C169.307 2.84503 169.685 1.92104 170.45 1.15367C171.209 0.386297 172.124 0 173.199 0C174.274 0 175.189 0.386297 175.949 1.15367Z" fill="#ABD147"/>
<path d="M176.957 10.0176H169.431V39.2457H176.957V10.0176Z" fill="#E6F3EB"/>
<path d="M187.811 35.5706C184.818 32.5481 183.319 28.894 183.319 24.6134C183.319 20.3328 184.818 16.6786 187.811 13.6561C190.803 10.6336 194.421 9.11975 198.66 9.11975C201.792 9.11975 204.397 10.0437 206.469 11.8969V10.0124H213.995V47.9948H206.469V37.3246C204.392 39.1778 201.787 40.1018 198.66 40.1018C194.421 40.1018 190.803 38.5932 187.811 35.5654V35.5706ZM206.475 24.5873C206.475 22.2799 205.715 20.3171 204.19 18.6884C202.665 17.0441 200.825 16.2245 198.66 16.2245C196.494 16.2245 194.654 17.0441 193.129 18.6884C191.605 20.3328 190.845 22.306 190.845 24.6134C190.845 26.9207 191.605 28.9201 193.129 30.5645C194.654 32.1879 196.494 33.0023 198.66 33.0023C200.825 33.0023 202.665 32.1879 204.19 30.5645C205.715 28.9201 206.475 26.9468 206.475 24.6395V24.5873Z" fill="#E6F3EB"/>
</g>
<defs>
<clipPath id="clip0_4001_2304">
<rect width="214" height="48" fill="white"/>
</clipPath>
</defs>
</svg>
